<svg xmlns="http://www.w3.org/2000/svg" xmlns:xlink="http://www.w3.org/1999/xlink" version="1.1" x="0px" y="0px" viewBox="0 0 48 60" enable-background="new 0 0 48 48" xml:space="preserve"><g><path d="M42,12H15.695c-0.523,0-1.018,0.201-1.394,0.565L4,22.578v1.817l10.263,10.971C14.639,35.769,15.172,36,15.724,36H42   c1.103,0,2-0.897,2-2V14C44,12.897,43.103,12,42,12z M32.707,28.293l-1.414,1.414L27,25.414l-4.293,4.293l-1.414-1.414L25.586,24   l-4.293-4.293l1.414-1.414L27,22.586l4.293-4.293l1.414,1.414L28.414,24L32.707,28.293z"/></g><text x="0" y="63" fill="#000000" font-size="5px" font-weight="bold" font-family="'Helvetica Neue', Helvetica, Arial-Unicode, Arial, Sans-serif">Created by Clea Doltz</text><text x="0" y="68" fill="#000000" font-size="5px" font-weight="bold" font-family="'Helvetica Neue', Helvetica, Arial-Unicode, Arial, Sans-serif">from the Noun Project</text></svg>